<svg xmlns="http://www.w3.org/2000/svg" width="1024" height="1024" viewBox="0 0 1024 1024" version="1.1"><path d="M 319.500 323.547 C 264.165 332.957, 217.959 371.887, 199.445 424.698 C 196.583 432.861, 196.554 432.900, 192.536 433.568 C 184.159 434.962, 177.661 440.089, 174.410 447.869 C 173.145 450.896, 172.945 456.460, 173.197 481.498 L 173.500 511.500 176.471 516.864 C 180.075 523.370, 184.598 526.624, 192.090 528.098 L 197.735 529.208 200.969 537.854 C 211.984 567.304, 232.314 592.892, 259.500 611.524 C 268.316 617.566, 287.963 627.009, 298.727 630.378 C 342.507 644.080, 389.635 638.708, 428.827 615.549 C 452.363 601.641, 471.345 582.228, 483.063 560.081 C 496.238 535.179, 524.741 529.905, 543.703 548.862 C 546.103 551.262, 550.527 557.405, 553.534 562.513 C 563.982 580.268, 576.403 594.165, 592.862 606.517 C 630.271 634.593, 681.403 644.691, 727.355 633.076 C 777.942 620.290, 816.321 586.554, 836.084 537.500 L 839.710 528.500 844.105 527.846 C 850.631 526.875, 853.378 525.542, 857.409 521.390 C 863.607 515.009, 864.158 511.296, 863.807 478.299 L 863.500 449.500 860.695 444.728 C 857.252 438.871, 851.753 435.085, 845.362 434.171 L 840.532 433.480 837.448 424.886 C 829.431 402.543, 818.174 385.009, 800.577 367.455 C 778.343 345.274, 756.626 333.127, 725 325.180 L 714.500 322.542 521 322.364 C 361.788 322.218, 326.082 322.427, 319.500 323.547 M 324 348.068 C 307.406 350.554, 282.885 361.006, 268.460 371.741 C 258.642 379.047, 243.904 394.367, 237.669 403.746 C 227.560 418.952, 220.510 436.436, 216.907 455.237 C 215.026 465.048, 214.821 468.692, 215.313 483.500 C 215.917 501.684, 217.593 511.303, 222.542 525 C 229.224 543.490, 238.847 558.815, 252.829 573.233 C 278.714 599.923, 315.857 614.571, 352.916 612.705 C 386.106 611.035, 416.250 598.248, 439.331 576.051 C 449.884 565.902, 455.185 559.045, 461.570 547.281 C 473.227 525.805, 494.035 512.855, 516.901 512.845 C 528.858 512.840, 534.347 514.057, 544.500 518.965 C 557.578 525.286, 566.569 534.586, 575.955 551.500 C 585.578 568.841, 604.519 586.826, 623.536 596.682 C 635.377 602.819, 643.172 605.771, 656.500 609.167 C 672.322 613.198, 693.451 614.144, 709.192 611.526 C 736.901 606.918, 761.448 594.833, 781.302 576.023 C 802.253 556.174, 815.577 531.309, 820.392 503.074 C 822.483 490.815, 822.494 468.287, 820.414 455.926 C 813.576 415.276, 786.367 378.743, 749 360.039 C 738.102 354.584, 730.254 351.841, 717.500 349.028 C 708.689 347.085, 704.524 347.045, 519 347.144 C 414.775 347.199, 327.025 347.615, 324 348.068 M 325.500 368.467 C 286.599 375.614, 252.974 404.325, 240.479 441.063 C 234.756 457.887, 232.880 481.699, 235.914 499 C 244.570 548.366, 284.165 585.062, 334.169 590.061 C 389.097 595.552, 439.489 559.734, 453.203 505.452 C 455.152 497.739, 455.457 494.010, 455.409 478.500 C 455.359 462.318, 455.086 459.490, 452.704 450.500 C 449.174 437.176, 439.976 418.793, 431.688 408.500 C 415.034 387.815, 391.083 373.507, 364.750 368.512 C 355.141 366.689, 335.299 366.666, 325.500 368.467 M 674.028 368.076 C 630.472 375.808, 594.614 408.424, 583.415 450.500 C 579.917 463.642, 579.001 485.001, 581.358 498.500 C 587.683 534.742, 610.504 564.779, 643.701 580.558 C 660.554 588.568, 681.967 592.047, 702.057 590.038 C 750.765 585.169, 791.076 549.283, 800.093 502.765 C 802.600 489.832, 802.771 468.650, 800.458 457.439 C 791.625 414.623, 759.521 381.326, 716 369.842 C 707.268 367.538, 682.847 366.511, 674.028 368.076 M 332.362 411.966 C 326.898 415.100, 320.243 423.705, 317.979 430.563 L 316.800 434.135 308.058 433.451 C 290.299 432.061, 281 438.247, 281 451.450 C 281 457.707, 283.839 465.580, 288.727 472.882 C 291.077 476.393, 293 479.654, 293 480.130 C 293 480.606, 291.431 483.180, 289.512 485.850 C 277.611 502.415, 277.489 517.332, 289.201 524.038 C 293.068 526.253, 294.642 526.502, 304.870 526.522 L 316.239 526.544 319.261 532.522 C 323.506 540.921, 326.619 544.692, 331.822 547.742 C 343.506 554.589, 357.103 547.353, 364.051 530.590 C 366.175 525.467, 366.542 525.101, 368.924 525.740 C 370.341 526.119, 375.116 526.420, 379.536 526.408 C 394.422 526.367, 401.425 520.563, 401.311 508.364 C 401.262 503.246, 400.558 500.602, 397.560 494.290 C 395.530 490.015, 392.767 485.072, 391.419 483.305 L 388.969 480.093 393.530 473.297 C 399.174 464.885, 402.497 454.645, 401.632 448.330 C 400.762 441.984, 398.248 438.305, 393.022 435.729 C 389.161 433.826, 386.864 433.500, 377.309 433.500 L 366.118 433.500 362.517 426.305 C 360.200 421.674, 357.165 417.535, 353.998 414.688 C 346.672 408.102, 340.462 407.320, 332.362 411.966 M 338.436 416.144 C 336.751 416.593, 333.707 418.627, 331.671 420.663 C 327.430 424.903, 322.258 434.695, 323.605 435.933 C 324.097 436.384, 326.975 437.545, 330 438.513 C 333.025 439.480, 336.750 440.903, 338.277 441.675 C 340.838 442.970, 341.771 442.794, 350.277 439.414 C 355.350 437.398, 359.656 435.612, 359.846 435.445 C 360.037 435.278, 358.767 432.466, 357.024 429.197 C 351.504 418.840, 345.127 414.362, 338.436 416.144 M 718.569 423.573 C 717.402 424.741, 717 427.216, 717 433.238 L 717 441.333 713.154 437.166 C 711.038 434.875, 708.653 433, 707.854 433 C 705.905 433, 704 435.014, 704 437.073 C 704 439.258, 718.477 453, 720.778 453 C 721.753 453, 725.849 449.679, 729.881 445.620 C 735.645 439.817, 737.074 437.807, 736.567 436.213 C 735.358 432.402, 732.892 432.689, 728.324 437.172 L 724 441.416 724 432.743 C 724 425.198, 723.749 423.936, 722.069 423.037 C 720.612 422.257, 719.754 422.389, 718.569 423.573 M 641.388 427.522 C 638.866 430.043, 638.866 430.045, 639.183 446.612 C 639.596 468.205, 638.357 467, 660.156 467 C 675.741 467, 676.145 466.946, 678.545 464.545 C 680.948 462.143, 681 461.751, 681 446 C 681 430.249, 680.948 429.857, 678.545 427.455 C 676.143 425.052, 675.751 425, 660 425 C 644.133 425, 643.874 425.035, 641.388 427.522 M 647.221 446.044 L 647.500 459.088 660.251 459.294 L 673.002 459.500 673.001 446.250 L 673 433 659.971 433 L 646.942 433 647.221 446.044 M 494 438 C 492.900 439.100, 492 440.902, 492 442.005 C 492 444.990, 534.583 489, 537.471 489 C 540.282 489, 543 486.046, 543 482.992 C 543 479.332, 500.078 436, 496.453 436 C 496.204 436, 495.100 436.900, 494 438 M 297.275 439.937 C 289.621 441.837, 286.403 446.333, 287.393 453.744 C 288.200 459.787, 295.634 474, 297.988 474 C 299.957 474, 310.001 463.688, 310.017 461.650 C 310.026 460.467, 310.876 455.450, 311.905 450.500 C 312.935 445.550, 313.490 441.208, 313.138 440.851 C 312.052 439.748, 300.678 439.092, 297.275 439.937 M 372.646 439.682 C 369.061 440.102, 368.833 440.320, 369.372 442.817 C 369.691 444.292, 370.722 449.677, 371.663 454.782 C 373.343 463.896, 373.468 464.153, 378.627 469.032 C 381.516 471.764, 384.262 474, 384.729 474 C 385.764 474, 391.325 464.924, 393.495 459.692 C 395.394 455.116, 395.681 448.142, 394.094 445.175 C 391.771 440.835, 382.682 438.507, 372.646 439.682 M 320.120 443.816 C 319.286 445.411, 317 455.070, 317 456.999 C 317 457.999, 332.880 447.889, 332.954 446.842 C 332.979 446.480, 330.300 445.272, 327 444.157 C 321.430 442.276, 320.937 442.252, 320.120 443.816 M 354.546 444.235 C 349.009 446.158, 348.729 446.400, 350.546 447.695 C 355.316 451.095, 365.263 457.071, 365.596 456.737 C 366.310 456.023, 362.485 442.639, 361.500 442.405 C 360.950 442.274, 357.821 443.097, 354.546 444.235 M 334.896 453.841 C 326.863 458.535, 319.318 463.682, 316.846 466.154 C 315.263 467.737, 315 469.657, 315 479.655 L 315 491.310 318.814 494.905 C 323.260 499.096, 339.588 509, 342.053 509 C 343.801 509, 361.788 497.417, 365.750 493.740 C 367.767 491.868, 367.999 490.710, 367.989 482.576 C 367.971 468.076, 367.610 466.974, 361.379 462.443 C 355.841 458.415, 342.915 450.161, 341.984 450.057 C 341.700 450.026, 338.511 451.728, 334.896 453.841 M 701.250 459.651 C 699.573 460.343, 699.658 464.471, 701.380 465.900 C 702.335 466.693, 708.531 466.961, 721.522 466.773 C 738.123 466.531, 740.411 466.298, 741.387 464.750 C 742.191 463.475, 742.191 462.525, 741.387 461.250 C 740.407 459.695, 738.177 459.480, 721.392 459.318 C 711.001 459.218, 701.938 459.368, 701.250 459.651 M 334.299 467.960 C 325.153 473.536, 326.053 487.924, 335.817 492.243 C 348.280 497.756, 358.976 486.451, 353.560 473.490 C 350.705 466.655, 341.005 463.870, 334.299 467.960 M 304.672 477.364 L 302.106 480.727 304.858 483.364 C 306.371 484.814, 307.922 486, 308.305 486 C 308.687 486, 309 483.300, 309 480 C 309 476.700, 308.603 474, 308.119 474 C 307.634 474, 306.083 475.514, 304.672 477.364 M 374 479.453 C 374 482.504, 374.372 485, 374.826 485 C 376.443 485, 380.047 480.287, 379.486 478.905 C 379.172 478.132, 377.809 476.691, 376.458 475.703 L 374 473.907 374 479.453 M 659.329 484.446 C 657.585 485.211, 655.656 486.774, 655.044 487.919 C 654.116 489.651, 652.972 490.003, 648.215 490.015 C 641.426 490.034, 639.709 490.907, 640.163 494.113 C 640.475 496.324, 640.996 496.522, 647.239 496.795 C 652.707 497.035, 654.175 497.458, 655.019 499.035 C 658.028 504.657, 666.998 505.168, 671.375 499.966 L 673.871 497 707.467 497 C 737.648 497, 741.127 496.834, 741.691 495.364 C 742.036 494.464, 741.860 493.002, 741.301 492.114 C 740.403 490.690, 736.369 490.469, 707.115 490.236 L 673.948 489.973 671.224 487.058 C 667.924 483.528, 663.590 482.576, 659.329 484.446 M 378.864 490.415 C 373.836 495.131, 373.152 496.258, 372.517 500.876 C 372.125 503.723, 371.179 508.403, 370.414 511.276 C 367.936 520.585, 367.583 520.236, 379.084 519.844 C 389.121 519.502, 389.181 519.485, 392.208 516.095 C 395.036 512.928, 395.213 512.284, 394.727 506.926 C 394.222 501.362, 390.470 492.711, 386.221 487.315 L 384.500 485.129 378.864 490.415 M 292.986 492.144 C 288.614 498.908, 287.014 503.510, 287.006 509.350 C 286.997 514.962, 291.767 519.505, 298.662 520.454 C 304.042 521.193, 312.679 520.329, 313.521 518.966 C 313.794 518.525, 313.331 515.539, 312.493 512.332 C 311.655 509.124, 310.687 504.125, 310.343 501.221 C 309.775 496.426, 309.220 495.488, 304.278 490.971 C 301.287 488.237, 298.415 486, 297.898 486 C 297.380 486, 295.169 488.765, 292.986 492.144 M 659.571 489.571 C 657.124 492.019, 657.580 496.679, 660.451 498.560 C 666.361 502.432, 673.364 494.355, 668.171 489.655 C 665.861 487.565, 661.620 487.523, 659.571 489.571 M 317 502.976 C 317 503.588, 317.742 507.042, 318.648 510.651 C 320.293 517.199, 320.304 517.212, 323.455 516.701 C 325.192 516.419, 328.367 515.456, 330.510 514.560 L 334.407 512.932 328.454 509.351 C 325.179 507.381, 321.262 504.890, 319.750 503.816 C 318.235 502.740, 317 502.363, 317 502.976 M 357.257 507.455 C 352.723 510.230, 349.011 512.776, 349.007 513.113 C 349.001 513.641, 358.841 517.029, 361.394 517.378 C 362.225 517.491, 366.227 504.165, 365.726 502.955 C 365.602 502.656, 361.791 504.681, 357.257 507.455 M 684.063 515.752 C 682.173 516.713, 679.923 518.952, 679.063 520.727 L 677.500 523.955 659.285 523.977 C 642.874 523.998, 640.976 524.176, 640.120 525.776 C 639.517 526.902, 639.522 528.182, 640.134 529.276 C 640.993 530.811, 643.119 531, 659.482 531 C 676.849 531, 677.900 531.108, 678.486 532.956 C 679.417 535.889, 684.610 539.836, 688.497 540.565 C 693.231 541.454, 700.354 537.975, 702.016 533.962 L 703.243 531 721.499 531 C 736.936 531, 739.958 530.755, 741.070 529.416 C 742.022 528.268, 742.095 527.374, 741.335 526.166 C 740.440 524.744, 737.646 524.427, 722.286 524 L 704.287 523.500 701.524 520.214 C 696.313 514.016, 690.430 512.512, 684.063 515.752 M 333.500 520.008 C 329.650 521.621, 325.923 522.955, 325.219 522.971 C 322.894 523.024, 322.828 525.742, 325.044 530.153 C 331.952 543.901, 340.216 547.543, 349.090 540.750 C 353.657 537.254, 360.895 525.475, 359.379 524.007 C 358.579 523.232, 345.579 518.322, 342 517.443 C 341.175 517.240, 337.350 518.394, 333.500 520.008 M 686.655 523.829 C 683.426 527.397, 685.881 533, 690.674 533 C 693.186 533, 696 530.002, 696 527.326 C 696 522.745, 689.752 520.407, 686.655 523.829" stroke="none" fill="#236aab" fill-rule="evenodd"/><path d="M 0 512.001 L 0 1024.002 512.250 1023.751 L 1024.500 1023.500 1024.751 511.750 L 1025.002 0 512.501 0 L 0 0 0 512.001 M 0.496 512.500 C 0.496 794.100, 0.610 909.151, 0.750 768.168 C 0.890 627.186, 0.890 396.786, 0.750 256.168 C 0.610 115.551, 0.496 230.900, 0.496 512.500 M 319.500 323.547 C 264.165 332.957, 217.959 371.887, 199.445 424.698 C 196.583 432.861, 196.554 432.900, 192.536 433.568 C 184.159 434.962, 177.661 440.089, 174.410 447.869 C 173.145 450.896, 172.945 456.460, 173.197 481.498 L 173.500 511.500 176.471 516.864 C 180.075 523.370, 184.598 526.624, 192.090 528.098 L 197.735 529.208 200.969 537.854 C 211.984 567.304, 232.314 592.892, 259.500 611.524 C 268.316 617.566, 287.963 627.009, 298.727 630.378 C 342.507 644.080, 389.635 638.708, 428.827 615.549 C 452.363 601.641, 471.345 582.228, 483.063 560.081 C 496.238 535.179, 524.741 529.905, 543.703 548.862 C 546.103 551.262, 550.527 557.405, 553.534 562.513 C 563.982 580.268, 576.403 594.165, 592.862 606.517 C 630.271 634.593, 681.403 644.691, 727.355 633.076 C 777.942 620.290, 816.321 586.554, 836.084 537.500 L 839.710 528.500 844.105 527.846 C 850.631 526.875, 853.378 525.542, 857.409 521.390 C 863.607 515.009, 864.158 511.296, 863.807 478.299 L 863.500 449.500 860.695 444.728 C 857.252 438.871, 851.753 435.085, 845.362 434.171 L 840.532 433.480 837.448 424.886 C 829.431 402.543, 818.174 385.009, 800.577 367.455 C 778.343 345.274, 756.626 333.127, 725 325.180 L 714.500 322.542 521 322.364 C 361.788 322.218, 326.082 322.427, 319.500 323.547 M 324 348.068 C 307.406 350.554, 282.885 361.006, 268.460 371.741 C 258.642 379.047, 243.904 394.367, 237.669 403.746 C 227.560 418.952, 220.510 436.436, 216.907 455.237 C 215.026 465.048, 214.821 468.692, 215.313 483.500 C 215.917 501.684, 217.593 511.303, 222.542 525 C 229.224 543.490, 238.847 558.815, 252.829 573.233 C 278.714 599.923, 315.857 614.571, 352.916 612.705 C 386.106 611.035, 416.250 598.248, 439.331 576.051 C 449.884 565.902, 455.185 559.045, 461.570 547.281 C 473.227 525.805, 494.035 512.855, 516.901 512.845 C 528.858 512.840, 534.347 514.057, 544.500 518.965 C 557.578 525.286, 566.569 534.586, 575.955 551.500 C 585.578 568.841, 604.519 586.826, 623.536 596.682 C 635.377 602.819, 643.172 605.771, 656.500 609.167 C 672.322 613.198, 693.451 614.144, 709.192 611.526 C 736.901 606.918, 761.448 594.833, 781.302 576.023 C 802.253 556.174, 815.577 531.309, 820.392 503.074 C 822.483 490.815, 822.494 468.287, 820.414 455.926 C 813.576 415.276, 786.367 378.743, 749 360.039 C 738.102 354.584, 730.254 351.841, 717.500 349.028 C 708.689 347.085, 704.524 347.045, 519 347.144 C 414.775 347.199, 327.025 347.615, 324 348.068 M 325.500 368.467 C 286.599 375.614, 252.974 404.325, 240.479 441.063 C 234.756 457.887, 232.880 481.699, 235.914 499 C 244.570 548.366, 284.165 585.062, 334.169 590.061 C 389.097 595.552, 439.489 559.734, 453.203 505.452 C 455.152 497.739, 455.457 494.010, 455.409 478.500 C 455.359 462.318, 455.086 459.490, 452.704 450.500 C 449.174 437.176, 439.976 418.793, 431.688 408.500 C 415.034 387.815, 391.083 373.507, 364.750 368.512 C 355.141 366.689, 335.299 366.666, 325.500 368.467 M 674.028 368.076 C 630.472 375.808, 594.614 408.424, 583.415 450.500 C 579.917 463.642, 579.001 485.001, 581.358 498.500 C 587.683 534.742, 610.504 564.779, 643.701 580.558 C 660.554 588.568, 681.967 592.047, 702.057 590.038 C 750.765 585.169, 791.076 549.283, 800.093 502.765 C 802.600 489.832, 802.771 468.650, 800.458 457.439 C 791.625 414.623, 759.521 381.326, 716 369.842 C 707.268 367.538, 682.847 366.511, 674.028 368.076 M 332.362 411.966 C 326.898 415.100, 320.243 423.705, 317.979 430.563 L 316.800 434.135 308.058 433.451 C 290.299 432.061, 281 438.247, 281 451.450 C 281 457.707, 283.839 465.580, 288.727 472.882 C 291.077 476.393, 293 479.654, 293 480.130 C 293 480.606, 291.431 483.180, 289.512 485.850 C 277.611 502.415, 277.489 517.332, 289.201 524.038 C 293.068 526.253, 294.642 526.502, 304.870 526.522 L 316.239 526.544 319.261 532.522 C 323.506 540.921, 326.619 544.692, 331.822 547.742 C 343.506 554.589, 357.103 547.353, 364.051 530.590 C 366.175 525.467, 366.542 525.101, 368.924 525.740 C 370.341 526.119, 375.116 526.420, 379.536 526.408 C 394.422 526.367, 401.425 520.563, 401.311 508.364 C 401.262 503.246, 400.558 500.602, 397.560 494.290 C 395.530 490.015, 392.767 485.072, 391.419 483.305 L 388.969 480.093 393.530 473.297 C 399.174 464.885, 402.497 454.645, 401.632 448.330 C 400.762 441.984, 398.248 438.305, 393.022 435.729 C 389.161 433.826, 386.864 433.500, 377.309 433.500 L 366.118 433.500 362.517 426.305 C 360.200 421.674, 357.165 417.535, 353.998 414.688 C 346.672 408.102, 340.462 407.320, 332.362 411.966 M 338.436 416.144 C 336.751 416.593, 333.707 418.627, 331.671 420.663 C 327.430 424.903, 322.258 434.695, 323.605 435.933 C 324.097 436.384, 326.975 437.545, 330 438.513 C 333.025 439.480, 336.750 440.903, 338.277 441.675 C 340.838 442.970, 341.771 442.794, 350.277 439.414 C 355.350 437.398, 359.656 435.612, 359.846 435.445 C 360.037 435.278, 358.767 432.466, 357.024 429.197 C 351.504 418.840, 345.127 414.362, 338.436 416.144 M 718.569 423.573 C 717.402 424.741, 717 427.216, 717 433.238 L 717 441.333 713.154 437.166 C 711.038 434.875, 708.653 433, 707.854 433 C 705.905 433, 704 435.014, 704 437.073 C 704 439.258, 718.477 453, 720.778 453 C 721.753 453, 725.849 449.679, 729.881 445.620 C 735.645 439.817, 737.074 437.807, 736.567 436.213 C 735.358 432.402, 732.892 432.689, 728.324 437.172 L 724 441.416 724 432.743 C 724 425.198, 723.749 423.936, 722.069 423.037 C 720.612 422.257, 719.754 422.389, 718.569 423.573 M 641.388 427.522 C 638.866 430.043, 638.866 430.045, 639.183 446.612 C 639.596 468.205, 638.357 467, 660.156 467 C 675.741 467, 676.145 466.946, 678.545 464.545 C 680.948 462.143, 681 461.751, 681 446 C 681 430.249, 680.948 429.857, 678.545 427.455 C 676.143 425.052, 675.751 425, 660 425 C 644.133 425, 643.874 425.035, 641.388 427.522 M 647.221 446.044 L 647.500 459.088 660.251 459.294 L 673.002 459.500 673.001 446.250 L 673 433 659.971 433 L 646.942 433 647.221 446.044 M 494 438 C 492.900 439.100, 492 440.902, 492 442.005 C 492 444.990, 534.583 489, 537.471 489 C 540.282 489, 543 486.046, 543 482.992 C 543 479.332, 500.078 436, 496.453 436 C 496.204 436, 495.100 436.900, 494 438 M 297.275 439.937 C 289.621 441.837, 286.403 446.333, 287.393 453.744 C 288.200 459.787, 295.634 474, 297.988 474 C 299.957 474, 310.001 463.688, 310.017 461.650 C 310.026 460.467, 310.876 455.450, 311.905 450.500 C 312.935 445.550, 313.490 441.208, 313.138 440.851 C 312.052 439.748, 300.678 439.092, 297.275 439.937 M 372.646 439.682 C 369.061 440.102, 368.833 440.320, 369.372 442.817 C 369.691 444.292, 370.722 449.677, 371.663 454.782 C 373.343 463.896, 373.468 464.153, 378.627 469.032 C 381.516 471.764, 384.262 474, 384.729 474 C 385.764 474, 391.325 464.924, 393.495 459.692 C 395.394 455.116, 395.681 448.142, 394.094 445.175 C 391.771 440.835, 382.682 438.507, 372.646 439.682 M 320.120 443.816 C 319.286 445.411, 317 455.070, 317 456.999 C 317 457.999, 332.880 447.889, 332.954 446.842 C 332.979 446.480, 330.300 445.272, 327 444.157 C 321.430 442.276, 320.937 442.252, 320.120 443.816 M 354.546 444.235 C 349.009 446.158, 348.729 446.400, 350.546 447.695 C 355.316 451.095, 365.263 457.071, 365.596 456.737 C 366.310 456.023, 362.485 442.639, 361.500 442.405 C 360.950 442.274, 357.821 443.097, 354.546 444.235 M 334.896 453.841 C 326.863 458.535, 319.318 463.682, 316.846 466.154 C 315.263 467.737, 315 469.657, 315 479.655 L 315 491.310 318.814 494.905 C 323.260 499.096, 339.588 509, 342.053 509 C 343.801 509, 361.788 497.417, 365.750 493.740 C 367.767 491.868, 367.999 490.710, 367.989 482.576 C 367.971 468.076, 367.610 466.974, 361.379 462.443 C 355.841 458.415, 342.915 450.161, 341.984 450.057 C 341.700 450.026, 338.511 451.728, 334.896 453.841 M 701.250 459.651 C 699.573 460.343, 699.658 464.471, 701.380 465.900 C 702.335 466.693, 708.531 466.961, 721.522 466.773 C 738.123 466.531, 740.411 466.298, 741.387 464.750 C 742.191 463.475, 742.191 462.525, 741.387 461.250 C 740.407 459.695, 738.177 459.480, 721.392 459.318 C 711.001 459.218, 701.938 459.368, 701.250 459.651 M 334.299 467.960 C 325.153 473.536, 326.053 487.924, 335.817 492.243 C 348.280 497.756, 358.976 486.451, 353.560 473.490 C 350.705 466.655, 341.005 463.870, 334.299 467.960 M 304.672 477.364 L 302.106 480.727 304.858 483.364 C 306.371 484.814, 307.922 486, 308.305 486 C 308.687 486, 309 483.300, 309 480 C 309 476.700, 308.603 474, 308.119 474 C 307.634 474, 306.083 475.514, 304.672 477.364 M 374 479.453 C 374 482.504, 374.372 485, 374.826 485 C 376.443 485, 380.047 480.287, 379.486 478.905 C 379.172 478.132, 377.809 476.691, 376.458 475.703 L 374 473.907 374 479.453 M 659.329 484.446 C 657.585 485.211, 655.656 486.774, 655.044 487.919 C 654.116 489.651, 652.972 490.003, 648.215 490.015 C 641.426 490.034, 639.709 490.907, 640.163 494.113 C 640.475 496.324, 640.996 496.522, 647.239 496.795 C 652.707 497.035, 654.175 497.458, 655.019 499.035 C 658.028 504.657, 666.998 505.168, 671.375 499.966 L 673.871 497 707.467 497 C 737.648 497, 741.127 496.834, 741.691 495.364 C 742.036 494.464, 741.860 493.002, 741.301 492.114 C 740.403 490.690, 736.369 490.469, 707.115 490.236 L 673.948 489.973 671.224 487.058 C 667.924 483.528, 663.590 482.576, 659.329 484.446 M 378.864 490.415 C 373.836 495.131, 373.152 496.258, 372.517 500.876 C 372.125 503.723, 371.179 508.403, 370.414 511.276 C 367.936 520.585, 367.583 520.236, 379.084 519.844 C 389.121 519.502, 389.181 519.485, 392.208 516.095 C 395.036 512.928, 395.213 512.284, 394.727 506.926 C 394.222 501.362, 390.470 492.711, 386.221 487.315 L 384.500 485.129 378.864 490.415 M 292.986 492.144 C 288.614 498.908, 287.014 503.510, 287.006 509.350 C 286.997 514.962, 291.767 519.505, 298.662 520.454 C 304.042 521.193, 312.679 520.329, 313.521 518.966 C 313.794 518.525, 313.331 515.539, 312.493 512.332 C 311.655 509.124, 310.687 504.125, 310.343 501.221 C 309.775 496.426, 309.220 495.488, 304.278 490.971 C 301.287 488.237, 298.415 486, 297.898 486 C 297.380 486, 295.169 488.765, 292.986 492.144 M 659.571 489.571 C 657.124 492.019, 657.580 496.679, 660.451 498.560 C 666.361 502.432, 673.364 494.355, 668.171 489.655 C 665.861 487.565, 661.620 487.523, 659.571 489.571 M 317 502.976 C 317 503.588, 317.742 507.042, 318.648 510.651 C 320.293 517.199, 320.304 517.212, 323.455 516.701 C 325.192 516.419, 328.367 515.456, 330.510 514.560 L 334.407 512.932 328.454 509.351 C 325.179 507.381, 321.262 504.890, 319.750 503.816 C 318.235 502.740, 317 502.363, 317 502.976 M 357.257 507.455 C 352.723 510.230, 349.011 512.776, 349.007 513.113 C 349.001 513.641, 358.841 517.029, 361.394 517.378 C 362.225 517.491, 366.227 504.165, 365.726 502.955 C 365.602 502.656, 361.791 504.681, 357.257 507.455 M 684.063 515.752 C 682.173 516.713, 679.923 518.952, 679.063 520.727 L 677.500 523.955 659.285 523.977 C 642.874 523.998, 640.976 524.176, 640.120 525.776 C 639.517 526.902, 639.522 528.182, 640.134 529.276 C 640.993 530.811, 643.119 531, 659.482 531 C 676.849 531, 677.900 531.108, 678.486 532.956 C 679.417 535.889, 684.610 539.836, 688.497 540.565 C 693.231 541.454, 700.354 537.975, 702.016 533.962 L 703.243 531 721.499 531 C 736.936 531, 739.958 530.755, 741.070 529.416 C 742.022 528.268, 742.095 527.374, 741.335 526.166 C 740.440 524.744, 737.646 524.427, 722.286 524 L 704.287 523.500 701.524 520.214 C 696.313 514.016, 690.430 512.512, 684.063 515.752 M 333.500 520.008 C 329.650 521.621, 325.923 522.955, 325.219 522.971 C 322.894 523.024, 322.828 525.742, 325.044 530.153 C 331.952 543.901, 340.216 547.543, 349.090 540.750 C 353.657 537.254, 360.895 525.475, 359.379 524.007 C 358.579 523.232, 345.579 518.322, 342 517.443 C 341.175 517.240, 337.350 518.394, 333.500 520.008 M 686.655 523.829 C 683.426 527.397, 685.881 533, 690.674 533 C 693.186 533, 696 530.002, 696 527.326 C 696 522.745, 689.752 520.407, 686.655 523.829" stroke="none" fill="#fbfbfb" fill-rule="evenodd"/></svg>